<mxfile host="Electron" agent="Mozilla/5.0 (Windows NT 10.0; Win64; x64) AppleWebKit/537.36 (KHTML, like Gecko) draw.io/24.7.17 Chrome/128.0.6613.36 Electron/32.0.1 Safari/537.36" version="24.7.17">
  <diagram name="PÃ¡gina-1" id="JDIv8UKhH3izjvuXfpMR">
    <mxGraphModel dx="1035" dy="626" grid="1" gridSize="10" guides="1" tooltips="1" connect="1" arrows="1" fold="1" page="1" pageScale="1" pageWidth="827" pageHeight="1169" math="0" shadow="0">
      <root>
        <mxCell id="0" />
        <mxCell id="1" parent="0" />
        <mxCell id="OM9glGIvjOpcElevbyCh-1" value="" style="ellipse;whiteSpace=wrap;html=1;aspect=fixed;" vertex="1" parent="1">
          <mxGeometry x="165" y="40" width="50" height="50" as="geometry" />
        </mxCell>
        <mxCell id="OM9glGIvjOpcElevbyCh-2" value="" style="endArrow=none;html=1;rounded=0;" edge="1" parent="1" source="OM9glGIvjOpcElevbyCh-3" target="OM9glGIvjOpcElevbyCh-1">
          <mxGeometry width="50" height="50" relative="1" as="geometry">
            <mxPoint x="189.5" y="140" as="sourcePoint" />
            <mxPoint x="189.5" y="90" as="targetPoint" />
          </mxGeometry>
        </mxCell>
        <mxCell id="OM9glGIvjOpcElevbyCh-6" value="" style="edgeStyle=orthogonalEdgeStyle;rounded=0;orthogonalLoop=1;jettySize=auto;html=1;" edge="1" parent="1" source="OM9glGIvjOpcElevbyCh-3" target="OM9glGIvjOpcElevbyCh-5">
          <mxGeometry relative="1" as="geometry" />
        </mxCell>
        <mxCell id="OM9glGIvjOpcElevbyCh-3" value="Esperando Tarjeta" style="rounded=1;whiteSpace=wrap;html=1;" vertex="1" parent="1">
          <mxGeometry x="130" y="140" width="120" height="60" as="geometry" />
        </mxCell>
        <mxCell id="OM9glGIvjOpcElevbyCh-4" value="Se enciende el Cajero // Encender Cajero,&amp;nbsp;&lt;div&gt;Habiltar Ranura de Tarjeta&lt;/div&gt;" style="text;html=1;align=center;verticalAlign=middle;resizable=0;points=[];autosize=1;strokeColor=none;fillColor=none;" vertex="1" parent="1">
          <mxGeometry x="215" y="45" width="250" height="40" as="geometry" />
        </mxCell>
        <mxCell id="OM9glGIvjOpcElevbyCh-8" style="edgeStyle=orthogonalEdgeStyle;rounded=0;orthogonalLoop=1;jettySize=auto;html=1;curved=1;" edge="1" parent="1" source="OM9glGIvjOpcElevbyCh-5">
          <mxGeometry relative="1" as="geometry">
            <mxPoint x="255" y="280" as="targetPoint" />
            <Array as="points">
              <mxPoint x="270" y="300" />
              <mxPoint x="270" y="280" />
            </Array>
          </mxGeometry>
        </mxCell>
        <mxCell id="OM9glGIvjOpcElevbyCh-11" value="" style="edgeStyle=orthogonalEdgeStyle;rounded=0;orthogonalLoop=1;jettySize=auto;html=1;" edge="1" parent="1" source="OM9glGIvjOpcElevbyCh-5" target="OM9glGIvjOpcElevbyCh-10">
          <mxGeometry relative="1" as="geometry" />
        </mxCell>
        <mxCell id="OM9glGIvjOpcElevbyCh-5" value="Esperando&lt;div&gt;Ingreso de&amp;nbsp;&lt;/div&gt;&lt;div&gt;Digitos&lt;/div&gt;" style="whiteSpace=wrap;html=1;rounded=1;" vertex="1" parent="1">
          <mxGeometry x="130" y="280" width="120" height="60" as="geometry" />
        </mxCell>
        <mxCell id="OM9glGIvjOpcElevbyCh-7" value="Se ingresa una tarjeta&amp;nbsp;&lt;div&gt;//&lt;span style=&quot;background-color: initial;&quot;&gt;Habilitar Pantalla Tactil&lt;/span&gt;&lt;/div&gt;" style="text;html=1;align=center;verticalAlign=middle;resizable=0;points=[];autosize=1;strokeColor=none;fillColor=none;" vertex="1" parent="1">
          <mxGeometry x="185" y="200" width="150" height="40" as="geometry" />
        </mxCell>
        <mxCell id="OM9glGIvjOpcElevbyCh-9" value="Se ingresa un digito&lt;div&gt;[Digitos ingresados menor a 3]&lt;/div&gt;&lt;div&gt;//Guardar Digito.&lt;/div&gt;" style="text;html=1;align=center;verticalAlign=middle;resizable=0;points=[];autosize=1;strokeColor=none;fillColor=none;" vertex="1" parent="1">
          <mxGeometry x="265" y="253" width="190" height="60" as="geometry" />
        </mxCell>
        <mxCell id="OM9glGIvjOpcElevbyCh-19" value="" style="edgeStyle=orthogonalEdgeStyle;rounded=0;orthogonalLoop=1;jettySize=auto;html=1;" edge="1" parent="1" source="OM9glGIvjOpcElevbyCh-10" target="OM9glGIvjOpcElevbyCh-18">
          <mxGeometry relative="1" as="geometry" />
        </mxCell>
        <mxCell id="OM9glGIvjOpcElevbyCh-10" value="Validando&lt;div&gt;Clave&lt;/div&gt;" style="whiteSpace=wrap;html=1;rounded=1;" vertex="1" parent="1">
          <mxGeometry x="130" y="420" width="120" height="60" as="geometry" />
        </mxCell>
        <mxCell id="OM9glGIvjOpcElevbyCh-12" value="Se ingresa un digito&lt;div&gt;[Digitos ingresados igual a 3]&lt;/div&gt;&lt;div&gt;// Habilitar Boton Aceptar&lt;/div&gt;" style="text;html=1;align=center;verticalAlign=middle;resizable=0;points=[];autosize=1;strokeColor=none;fillColor=none;" vertex="1" parent="1">
          <mxGeometry x="250" y="320" width="180" height="60" as="geometry" />
        </mxCell>
        <mxCell id="OM9glGIvjOpcElevbyCh-13" style="edgeStyle=orthogonalEdgeStyle;rounded=0;orthogonalLoop=1;jettySize=auto;html=1;curved=1;" edge="1" parent="1">
          <mxGeometry relative="1" as="geometry">
            <mxPoint x="250" y="320" as="targetPoint" />
            <mxPoint x="245" y="340" as="sourcePoint" />
            <Array as="points">
              <mxPoint x="265" y="340" />
              <mxPoint x="265" y="320" />
            </Array>
          </mxGeometry>
        </mxCell>
        <mxCell id="OM9glGIvjOpcElevbyCh-14" value="Se apreta boton Aceptar&lt;div&gt;[Digitos igual a 4]&lt;/div&gt;&lt;div&gt;// Verificar Clave&lt;/div&gt;" style="text;html=1;align=center;verticalAlign=middle;resizable=0;points=[];autosize=1;strokeColor=none;fillColor=none;" vertex="1" parent="1">
          <mxGeometry x="45" y="340" width="150" height="60" as="geometry" />
        </mxCell>
        <mxCell id="OM9glGIvjOpcElevbyCh-15" value="" style="ellipse;shape=doubleEllipse;whiteSpace=wrap;html=1;aspect=fixed;" vertex="1" parent="1">
          <mxGeometry x="165" y="530" width="50" height="50" as="geometry" />
        </mxCell>
        <mxCell id="OM9glGIvjOpcElevbyCh-16" value="" style="endArrow=none;html=1;rounded=0;" edge="1" parent="1" source="OM9glGIvjOpcElevbyCh-15">
          <mxGeometry width="50" height="50" relative="1" as="geometry">
            <mxPoint x="189.66000000000003" y="530" as="sourcePoint" />
            <mxPoint x="189.66000000000003" y="480" as="targetPoint" />
          </mxGeometry>
        </mxCell>
        <mxCell id="OM9glGIvjOpcElevbyCh-17" value="Clave Incorrecta&lt;div&gt;// Visualizar &quot;Error&quot;,&lt;/div&gt;&lt;div&gt;Emitir Pitido,&amp;nbsp;&lt;/div&gt;&lt;div&gt;Expulsar Tarjeta.&lt;/div&gt;" style="text;html=1;align=center;verticalAlign=middle;resizable=0;points=[];autosize=1;strokeColor=none;fillColor=none;" vertex="1" parent="1">
          <mxGeometry x="40" y="478" width="130" height="70" as="geometry" />
        </mxCell>
        <mxCell id="OM9glGIvjOpcElevbyCh-22" value="" style="edgeStyle=orthogonalEdgeStyle;rounded=0;orthogonalLoop=1;jettySize=auto;html=1;" edge="1" parent="1" source="OM9glGIvjOpcElevbyCh-18" target="OM9glGIvjOpcElevbyCh-21">
          <mxGeometry relative="1" as="geometry" />
        </mxCell>
        <mxCell id="OM9glGIvjOpcElevbyCh-56" value="" style="edgeStyle=orthogonalEdgeStyle;rounded=0;orthogonalLoop=1;jettySize=auto;html=1;" edge="1" parent="1" target="OM9glGIvjOpcElevbyCh-55">
          <mxGeometry relative="1" as="geometry">
            <mxPoint x="640" y="505" as="sourcePoint" />
            <mxPoint x="770" y="590" as="targetPoint" />
          </mxGeometry>
        </mxCell>
        <mxCell id="OM9glGIvjOpcElevbyCh-18" value="Esperando&lt;div&gt;Seleccion&lt;/div&gt;" style="whiteSpace=wrap;html=1;rounded=1;" vertex="1" parent="1">
          <mxGeometry x="520" y="470" width="120" height="60" as="geometry" />
        </mxCell>
        <mxCell id="OM9glGIvjOpcElevbyCh-20" value="Clave Correcta&lt;div&gt;//Visualizar Menu Principal,&amp;nbsp;&lt;/div&gt;&lt;div&gt;Habilitar Opciones: Extraccion&lt;/div&gt;&lt;div&gt;de Dinero y Consultar Saldo&lt;/div&gt;" style="text;html=1;align=center;verticalAlign=middle;resizable=0;points=[];autosize=1;strokeColor=none;fillColor=none;" vertex="1" parent="1">
          <mxGeometry x="245" y="450" width="180" height="70" as="geometry" />
        </mxCell>
        <mxCell id="OM9glGIvjOpcElevbyCh-25" value="" style="rounded=0;orthogonalLoop=1;jettySize=auto;html=1;" edge="1" parent="1" source="OM9glGIvjOpcElevbyCh-21" target="OM9glGIvjOpcElevbyCh-24">
          <mxGeometry relative="1" as="geometry" />
        </mxCell>
        <mxCell id="OM9glGIvjOpcElevbyCh-27" style="edgeStyle=orthogonalEdgeStyle;rounded=0;orthogonalLoop=1;jettySize=auto;html=1;curved=1;" edge="1" parent="1" source="OM9glGIvjOpcElevbyCh-21">
          <mxGeometry relative="1" as="geometry">
            <mxPoint x="833" y="300" as="targetPoint" />
          </mxGeometry>
        </mxCell>
        <mxCell id="OM9glGIvjOpcElevbyCh-21" value="Esperando&lt;div&gt;Monto&lt;/div&gt;" style="whiteSpace=wrap;html=1;rounded=1;" vertex="1" parent="1">
          <mxGeometry x="710" y="300" width="120" height="60" as="geometry" />
        </mxCell>
        <mxCell id="OM9glGIvjOpcElevbyCh-23" value="Se selecciona Extraer Dinero&lt;div&gt;// Habilitar Teclado&lt;/div&gt;" style="text;html=1;align=center;verticalAlign=middle;resizable=0;points=[];autosize=1;strokeColor=none;fillColor=none;" vertex="1" parent="1">
          <mxGeometry x="770" y="383" width="180" height="40" as="geometry" />
        </mxCell>
        <mxCell id="OM9glGIvjOpcElevbyCh-29" style="rounded=0;orthogonalLoop=1;jettySize=auto;html=1;entryX=0.125;entryY=0;entryDx=0;entryDy=0;entryPerimeter=0;exitX=0;exitY=0.25;exitDx=0;exitDy=0;" edge="1" parent="1">
          <mxGeometry relative="1" as="geometry">
            <mxPoint x="625" y="205" as="sourcePoint" />
            <mxPoint x="620" y="470" as="targetPoint" />
          </mxGeometry>
        </mxCell>
        <mxCell id="OM9glGIvjOpcElevbyCh-24" value="Evaluando&lt;div&gt;Saldos&lt;/div&gt;" style="whiteSpace=wrap;html=1;rounded=1;" vertex="1" parent="1">
          <mxGeometry x="540" y="190" width="120" height="60" as="geometry" />
        </mxCell>
        <mxCell id="OM9glGIvjOpcElevbyCh-26" value="Se apreta el boton Confirmar&lt;div&gt;//Verificar Saldos&amp;nbsp;&lt;/div&gt;" style="text;html=1;align=center;verticalAlign=middle;resizable=0;points=[];autosize=1;strokeColor=none;fillColor=none;" vertex="1" parent="1">
          <mxGeometry x="680" y="220" width="180" height="40" as="geometry" />
        </mxCell>
        <mxCell id="OM9glGIvjOpcElevbyCh-28" value="Se ingresa un monto&lt;div&gt;// Habilitar Boton Confirmar&lt;/div&gt;" style="text;html=1;align=center;verticalAlign=middle;resizable=0;points=[];autosize=1;strokeColor=none;fillColor=none;" vertex="1" parent="1">
          <mxGeometry x="840" y="280" width="170" height="40" as="geometry" />
        </mxCell>
        <mxCell id="OM9glGIvjOpcElevbyCh-30" value="&lt;h5 style=&quot;font-size: 8px;&quot;&gt;&lt;span style=&quot;font-weight: normal;&quot;&gt;Se evaluaron lo saldos&lt;br&gt;[Saldos de Cuenta y Cajero suficientes]&lt;br&gt;// Entregar Dinero.&lt;br&gt;Imprimir Comprobante,&lt;br&gt;Visualizar Menu Principal&lt;/span&gt;&lt;/h5&gt;" style="text;html=1;align=center;verticalAlign=middle;resizable=0;points=[];autosize=1;strokeColor=none;fillColor=none;" vertex="1" parent="1">
          <mxGeometry x="460" y="343" width="160" height="90" as="geometry" />
        </mxCell>
        <mxCell id="OM9glGIvjOpcElevbyCh-31" style="rounded=0;orthogonalLoop=1;jettySize=auto;html=1;entryX=0.25;entryY=0;entryDx=0;entryDy=0;exitX=0.153;exitY=0.964;exitDx=0;exitDy=0;exitPerimeter=0;" edge="1" parent="1">
          <mxGeometry relative="1" as="geometry">
            <mxPoint x="639.9999999999999" y="247.84000000000003" as="sourcePoint" />
            <mxPoint x="631.64" y="470" as="targetPoint" />
          </mxGeometry>
        </mxCell>
        <mxCell id="OM9glGIvjOpcElevbyCh-32" value="&lt;h5 style=&quot;font-size: 9px;&quot;&gt;&lt;span style=&quot;font-weight: normal;&quot;&gt;&lt;font style=&quot;font-size: 9px;&quot;&gt;Se evaluaron saldos&lt;br&gt;&lt;/font&gt;&lt;font style=&quot;font-size: 9px;&quot;&gt;[Saldo de Cuenta&lt;br&gt;&lt;/font&gt;&lt;font style=&quot;font-size: 9px;&quot;&gt;Insuficiente]&lt;br&gt;&lt;/font&gt;&lt;font style=&quot;font-size: 9px;&quot;&gt;// Mostrar &quot;Saldo&amp;nbsp;&lt;br&gt;&lt;/font&gt;&lt;font style=&quot;font-size: 9px;&quot;&gt;Insuficiente&quot;,&lt;br&gt;&lt;/font&gt;&lt;font style=&quot;font-size: 9px;&quot;&gt;Visualizar Menu&lt;br&gt;&lt;/font&gt;&lt;font style=&quot;font-size: 9px;&quot;&gt;Principal&lt;/font&gt;&lt;/span&gt;&lt;/h5&gt;" style="text;html=1;align=left;verticalAlign=middle;resizable=0;points=[];autosize=1;strokeColor=none;fillColor=none;" vertex="1" parent="1">
          <mxGeometry x="640" y="343" width="110" height="120" as="geometry" />
        </mxCell>
        <mxCell id="OM9glGIvjOpcElevbyCh-35" value="&lt;h5&gt;&lt;span style=&quot;font-weight: normal;&quot;&gt;Se evaluaron lo saldos&lt;br&gt;[Saldos de Cajero Insuficiente]&lt;br&gt;// Mostrar &quot;No se puede entregar&lt;br&gt;el dinero&lt;/span&gt;&lt;/h5&gt;" style="text;html=1;align=center;verticalAlign=middle;resizable=0;points=[];autosize=1;strokeColor=none;fillColor=none;" vertex="1" parent="1">
          <mxGeometry x="455" y="250" width="170" height="90" as="geometry" />
        </mxCell>
        <mxCell id="OM9glGIvjOpcElevbyCh-37" style="rounded=0;orthogonalLoop=1;jettySize=auto;html=1;entryX=0.75;entryY=0;entryDx=0;entryDy=0;exitX=0.642;exitY=0.983;exitDx=0;exitDy=0;exitPerimeter=0;" edge="1" parent="1" source="OM9glGIvjOpcElevbyCh-24" target="OM9glGIvjOpcElevbyCh-18">
          <mxGeometry relative="1" as="geometry">
            <mxPoint x="605" y="205" as="sourcePoint" />
            <mxPoint x="600" y="470" as="targetPoint" />
          </mxGeometry>
        </mxCell>
        <mxCell id="OM9glGIvjOpcElevbyCh-38" value="" style="ellipse;shape=doubleEllipse;whiteSpace=wrap;html=1;aspect=fixed;" vertex="1" parent="1">
          <mxGeometry x="40" y="260" width="50" height="50" as="geometry" />
        </mxCell>
        <mxCell id="OM9glGIvjOpcElevbyCh-39" value="" style="endArrow=none;html=1;rounded=0;" edge="1" parent="1" source="OM9glGIvjOpcElevbyCh-5" target="OM9glGIvjOpcElevbyCh-38">
          <mxGeometry width="50" height="50" relative="1" as="geometry">
            <mxPoint x="135" y="285" as="sourcePoint" />
            <mxPoint x="64.86000000000001" y="310" as="targetPoint" />
          </mxGeometry>
        </mxCell>
        <mxCell id="OM9glGIvjOpcElevbyCh-40" value="&lt;h5 style=&quot;font-size: 8px;&quot;&gt;&lt;span style=&quot;font-weight: normal;&quot;&gt;Abortar // Cancelar Operacion&lt;br&gt;Expulsar Tarjeta&lt;/span&gt;&lt;/h5&gt;" style="text;html=1;align=center;verticalAlign=middle;resizable=0;points=[];autosize=1;strokeColor=none;fillColor=none;" vertex="1" parent="1">
          <mxGeometry y="293" width="130" height="60" as="geometry" />
        </mxCell>
        <mxCell id="OM9glGIvjOpcElevbyCh-41" value="" style="ellipse;shape=doubleEllipse;whiteSpace=wrap;html=1;aspect=fixed;" vertex="1" parent="1">
          <mxGeometry x="40" y="400" width="50" height="50" as="geometry" />
        </mxCell>
        <mxCell id="OM9glGIvjOpcElevbyCh-42" value="" style="endArrow=none;html=1;rounded=0;" edge="1" parent="1" target="OM9glGIvjOpcElevbyCh-41" source="OM9glGIvjOpcElevbyCh-10">
          <mxGeometry width="50" height="50" relative="1" as="geometry">
            <mxPoint x="135" y="425" as="sourcePoint" />
            <mxPoint x="64.86000000000001" y="450" as="targetPoint" />
          </mxGeometry>
        </mxCell>
        <mxCell id="OM9glGIvjOpcElevbyCh-43" value="&lt;h5 style=&quot;font-size: 8px;&quot;&gt;&lt;span style=&quot;font-weight: normal;&quot;&gt;Abortar // Cancelar Operacion&lt;br&gt;Expulsar Tarjeta&lt;/span&gt;&lt;/h5&gt;" style="text;html=1;align=center;verticalAlign=middle;resizable=0;points=[];autosize=1;strokeColor=none;fillColor=none;" vertex="1" parent="1">
          <mxGeometry x="10" y="433" width="130" height="60" as="geometry" />
        </mxCell>
        <mxCell id="OM9glGIvjOpcElevbyCh-44" value="" style="ellipse;shape=doubleEllipse;whiteSpace=wrap;html=1;aspect=fixed;" vertex="1" parent="1">
          <mxGeometry x="430" y="505" width="50" height="50" as="geometry" />
        </mxCell>
        <mxCell id="OM9glGIvjOpcElevbyCh-45" value="" style="endArrow=none;html=1;rounded=0;" edge="1" parent="1" target="OM9glGIvjOpcElevbyCh-44" source="OM9glGIvjOpcElevbyCh-18">
          <mxGeometry width="50" height="50" relative="1" as="geometry">
            <mxPoint x="525" y="530" as="sourcePoint" />
            <mxPoint x="454.86" y="555" as="targetPoint" />
          </mxGeometry>
        </mxCell>
        <mxCell id="OM9glGIvjOpcElevbyCh-46" value="&lt;h5 style=&quot;font-size: 8px;&quot;&gt;&lt;span style=&quot;font-weight: normal;&quot;&gt;Abortar // Cancelar Operacion&lt;br&gt;Expulsar Tarjeta&lt;/span&gt;&lt;/h5&gt;" style="text;html=1;align=center;verticalAlign=middle;resizable=0;points=[];autosize=1;strokeColor=none;fillColor=none;" vertex="1" parent="1">
          <mxGeometry x="370" y="540" width="130" height="60" as="geometry" />
        </mxCell>
        <mxCell id="OM9glGIvjOpcElevbyCh-51" style="rounded=0;orthogonalLoop=1;jettySize=auto;html=1;endArrow=none;endFill=0;" edge="1" parent="1" source="OM9glGIvjOpcElevbyCh-47" target="OM9glGIvjOpcElevbyCh-21">
          <mxGeometry relative="1" as="geometry" />
        </mxCell>
        <mxCell id="OM9glGIvjOpcElevbyCh-47" value="" style="ellipse;shape=doubleEllipse;whiteSpace=wrap;html=1;aspect=fixed;" vertex="1" parent="1">
          <mxGeometry x="920" y="330" width="50" height="50" as="geometry" />
        </mxCell>
        <mxCell id="OM9glGIvjOpcElevbyCh-49" value="&lt;h5 style=&quot;font-size: 8px;&quot;&gt;&lt;span style=&quot;font-weight: normal;&quot;&gt;Abortar // Cancelar Operacion&lt;br&gt;Expulsar Tarjeta&lt;/span&gt;&lt;/h5&gt;" style="text;html=1;align=center;verticalAlign=middle;resizable=0;points=[];autosize=1;strokeColor=none;fillColor=none;" vertex="1" parent="1">
          <mxGeometry x="960" y="323" width="130" height="60" as="geometry" />
        </mxCell>
        <mxCell id="OM9glGIvjOpcElevbyCh-52" value="" style="ellipse;shape=doubleEllipse;whiteSpace=wrap;html=1;aspect=fixed;" vertex="1" parent="1">
          <mxGeometry x="625" y="100" width="50" height="50" as="geometry" />
        </mxCell>
        <mxCell id="OM9glGIvjOpcElevbyCh-53" value="" style="endArrow=none;html=1;rounded=0;" edge="1" parent="1" target="OM9glGIvjOpcElevbyCh-52" source="OM9glGIvjOpcElevbyCh-24">
          <mxGeometry width="50" height="50" relative="1" as="geometry">
            <mxPoint x="590" y="110" as="sourcePoint" />
            <mxPoint x="519.86" y="135" as="targetPoint" />
          </mxGeometry>
        </mxCell>
        <mxCell id="OM9glGIvjOpcElevbyCh-54" value="&lt;h5 style=&quot;font-size: 8px;&quot;&gt;&lt;span style=&quot;font-weight: normal;&quot;&gt;Abortar // Cancelar Operacion&lt;br&gt;Expulsar Tarjeta&lt;/span&gt;&lt;/h5&gt;" style="text;html=1;align=center;verticalAlign=middle;resizable=0;points=[];autosize=1;strokeColor=none;fillColor=none;" vertex="1" parent="1">
          <mxGeometry x="510" y="130" width="130" height="60" as="geometry" />
        </mxCell>
        <mxCell id="OM9glGIvjOpcElevbyCh-60" style="edgeStyle=orthogonalEdgeStyle;rounded=0;orthogonalLoop=1;jettySize=auto;html=1;" edge="1" parent="1" source="OM9glGIvjOpcElevbyCh-55" target="OM9glGIvjOpcElevbyCh-18">
          <mxGeometry relative="1" as="geometry">
            <Array as="points">
              <mxPoint x="580" y="630" />
            </Array>
          </mxGeometry>
        </mxCell>
        <mxCell id="OM9glGIvjOpcElevbyCh-55" value="Visualizando&lt;div&gt;Saldo&lt;/div&gt;" style="whiteSpace=wrap;html=1;rounded=1;" vertex="1" parent="1">
          <mxGeometry x="740" y="620" width="120" height="60" as="geometry" />
        </mxCell>
        <mxCell id="OM9glGIvjOpcElevbyCh-57" value="Se selecciona&lt;div&gt;Consultar Saldo&lt;/div&gt;&lt;div&gt;// Habilitar boton Imprimir y&lt;/div&gt;&lt;div&gt;Volver a Menu Principal&lt;/div&gt;" style="text;html=1;align=center;verticalAlign=middle;resizable=0;points=[];autosize=1;strokeColor=none;fillColor=none;" vertex="1" parent="1">
          <mxGeometry x="790" y="505" width="170" height="70" as="geometry" />
        </mxCell>
        <mxCell id="OM9glGIvjOpcElevbyCh-58" style="edgeStyle=orthogonalEdgeStyle;rounded=0;orthogonalLoop=1;jettySize=auto;html=1;entryX=0.336;entryY=1.033;entryDx=0;entryDy=0;entryPerimeter=0;" edge="1" parent="1" source="OM9glGIvjOpcElevbyCh-55" target="OM9glGIvjOpcElevbyCh-18">
          <mxGeometry relative="1" as="geometry">
            <Array as="points">
              <mxPoint x="560" y="650" />
            </Array>
          </mxGeometry>
        </mxCell>
        <mxCell id="OM9glGIvjOpcElevbyCh-59" value="Se apreto Imprimir&lt;div&gt;// Imprimir Comprobante&lt;/div&gt;&lt;div&gt;con datos de la cuenta,&lt;/div&gt;&lt;div&gt;Visualizar Menu Principal&lt;/div&gt;" style="text;html=1;align=center;verticalAlign=middle;resizable=0;points=[];autosize=1;strokeColor=none;fillColor=none;" vertex="1" parent="1">
          <mxGeometry x="550" y="668" width="160" height="70" as="geometry" />
        </mxCell>
        <mxCell id="OM9glGIvjOpcElevbyCh-61" value="Se apreto Volver&lt;div&gt;//&amp;nbsp;&lt;span style=&quot;background-color: initial;&quot;&gt;Visualizar Menu Principal&lt;/span&gt;&lt;/div&gt;" style="text;html=1;align=center;verticalAlign=middle;resizable=0;points=[];autosize=1;strokeColor=none;fillColor=none;" vertex="1" parent="1">
          <mxGeometry x="585" y="563" width="170" height="40" as="geometry" />
        </mxCell>
      </root>
    </mxGraphModel>
  </diagram>
</mxfile>
